<svg id="Layer_1" data-name="Layer 1" xmlns="http://www.w3.org/2000/svg" viewBox="0 0 826.49 279.41"><defs><style>.cls-1{fill:#121212;}.cls-2{fill:#155f7b;}.cls-3{fill:#fff;}.cls-4{fill:#929497;}</style></defs><rect class="cls-1" x="49.59" y="15.75" width="734.39" height="250.68" rx="32.64"/><polygon class="cls-2" points="165.28 101.22 219.56 209.78 255.87 209.78 165.28 28.6 74.69 209.78 111.01 209.78 165.28 101.22"/><rect class="cls-2" x="247.32" y="108.22" width="36.31" height="101.56"/><path class="cls-3" d="M179.74,80.61v10.3s-48.22,12.73-46.41,28.28,66,90.59,66,90.59H141.54S87.5,137.53,92.32,123,116.14,96,127.9,90.91,167.35,82.6,179.74,80.61Z"/><path class="cls-4" d="M148.52,118.72c0-19.53,53.59-31.39,92.38-37.43-.06-.78-.11-1.56-.11-2.36a33.67,33.67,0,0,1,.5-5.74c-59.87-.06-167.8,5.87-166.87,49.59,0,32.44,28.42,38.71,50.14,87h42.08a58.81,58.81,0,0,0-4.36-8.13,185.35,185.35,0,0,0-13.2-17.81l-14.67-17.75a184.48,184.48,0,0,1-14.13-19.37,69.84,69.84,0,0,1-5.79-11.5A32.54,32.54,0,0,1,112.23,121a27.27,27.27,0,0,1,4.78-13.3,35.15,35.15,0,0,1,8.92-8.6c6.51-4.42,13.48-7,20.46-8.93a117,117,0,0,1,21.21-3.68l.16,1.93a117.47,117.47,0,0,0-20.37,5.78c-6.57,2.58-13,5.8-18.39,10.29a30.21,30.21,0,0,0-6.73,7.72,18.84,18.84,0,0,0-2.52,9.31,21.79,21.79,0,0,0,2.41,9.41,57,57,0,0,0,5.63,9.08,168.33,168.33,0,0,0,14.6,16.61l16,16.09a192.16,192.16,0,0,1,15.84,17.83,72.62,72.62,0,0,1,7.18,11.22,47,47,0,0,1,3.15,8h33.59C218.15,179.18,148.52,139,148.52,118.72Z"/><circle class="cls-4" cx="265.48" cy="78.08" r="17.09"/><path class="cls-3" d="M328.56,203.8a9.37,9.37,0,0,1-2.26-6.35V131.57a3.93,3.93,0,0,0-1.54-3.1,7.35,7.35,0,0,0-3.75-.79H302.3a7.62,7.62,0,0,1-5.68-2.38c-1.54-1.58-2.32-4-2.32-7.28s.73-5.69,2.2-7.28a7.52,7.52,0,0,1,5.8-2.38h65.43a7.63,7.63,0,0,1,5.8,2.31q2.19,2.31,2.19,7.21c0,3.27-.77,5.69-2.32,7.28a7.65,7.65,0,0,1-5.67,2.38H349.14a6.91,6.91,0,0,0-3.93.93c-.91.63-1.36,1.85-1.36,3.68v65.3a9.54,9.54,0,0,1-2.13,6.49q-2.13,2.44-6.51,2.45C332.28,206.39,330.07,205.53,328.56,203.8Z"/><path class="cls-3" d="M385,157.38a52,52,0,0,1,3.48-19,49.69,49.69,0,0,1,9.61-15.64,46,46,0,0,1,14.33-10.6,41.38,41.38,0,0,1,35,0,45,45,0,0,1,14.32,10.6,52.06,52.06,0,0,1,0,69.34,44.77,44.77,0,0,1-14.32,10.59,41.38,41.38,0,0,1-35,0,45.82,45.82,0,0,1-14.33-10.59,49.69,49.69,0,0,1-9.61-15.64A52,52,0,0,1,385,157.38Zm17.55.14a30.84,30.84,0,0,0,8.12,21,27.77,27.77,0,0,0,8.71,6.34,25.11,25.11,0,0,0,21,0,27.77,27.77,0,0,0,8.71-6.34,30.79,30.79,0,0,0,5.93-9.44,30.48,30.48,0,0,0,2.2-11.61,31,31,0,0,0-2.2-11.68,30.55,30.55,0,0,0-5.93-9.51,28.63,28.63,0,0,0-8.71-6.41,24.44,24.44,0,0,0-21,0,28.63,28.63,0,0,0-8.71,6.41,30.55,30.55,0,0,0-5.93,9.51A31.22,31.22,0,0,0,402.57,157.52Z"/><path class="cls-3" d="M490.83,205.67a8.66,8.66,0,0,1-4.45-3.24,8.16,8.16,0,0,1-1.36-4.54,26.76,26.76,0,0,1,.65-4L513.54,114a9.39,9.39,0,0,1,2.64-4.11,6.36,6.36,0,0,1,4.33-1.52H534.7a6.35,6.35,0,0,1,4.32,1.52,9.4,9.4,0,0,1,2.65,4.11l19.22,55.06L580.12,114a9.4,9.4,0,0,1,2.65-4.11,6.35,6.35,0,0,1,4.32-1.52h14.19a6.37,6.37,0,0,1,4.33,1.52,9.39,9.39,0,0,1,2.64,4.11l27.87,79.86a28.22,28.22,0,0,1,.65,4,8.23,8.23,0,0,1-1.35,4.54,8.73,8.73,0,0,1-4.46,3.24,7.14,7.14,0,0,1-2.13.72,14.38,14.38,0,0,1-2,.14q-5.28,0-7.09-5.47l-25.55-72.8L569.8,197.89a23.47,23.47,0,0,1-3.1,6.41,6,6,0,0,1-5.16,2.23h-1.29a7,7,0,0,1-4.9-1.87,26.19,26.19,0,0,1-1.94-3.17,28.47,28.47,0,0,1-1.81-4.76l-24-68.47-25.55,72.8q-1.94,5.48-7.09,5.47a14.38,14.38,0,0,1-2-.14A7.14,7.14,0,0,1,490.83,205.67Z"/><path class="cls-3" d="M713.16,187.07a8.09,8.09,0,0,0,5.74-3.24,10.59,10.59,0,0,0,2.39-6.85,9.71,9.71,0,0,0-2.58-6.92,8.37,8.37,0,0,0-6.32-2.74H678.84a25.33,25.33,0,0,1-10.71-2.3,27.22,27.22,0,0,1-8.71-6.27,29.52,29.52,0,0,1-5.81-9.37,31,31,0,0,1-2.13-11.46,30.2,30.2,0,0,1,2.19-11.46,30.68,30.68,0,0,1,5.94-9.45,27.46,27.46,0,0,1,8.77-6.34,25.69,25.69,0,0,1,10.84-2.31h51.62a7.52,7.52,0,0,1,5.8,2.38q2.21,2.39,2.2,7.28c0,3.27-.78,5.7-2.32,7.28a7.64,7.64,0,0,1-5.68,2.38H677.16a8,8,0,0,0-5.74,3.32,10.82,10.82,0,0,0-2.39,6.92,10.21,10.21,0,0,0,2.58,7.06,8.17,8.17,0,0,0,6.32,2.88h33.55a26.06,26.06,0,0,1,10.71,2.24,26.81,26.81,0,0,1,8.71,6.12,29,29,0,0,1,5.81,9.23,30.43,30.43,0,0,1,2.13,11.39,30.09,30.09,0,0,1-2.2,11.46,30.79,30.79,0,0,1-5.93,9.44,27.35,27.35,0,0,1-8.78,6.34,25.63,25.63,0,0,1-10.84,2.31H659.48a7.51,7.51,0,0,1-5.81-2.38q-2.19-2.37-2.19-7.28t2.32-7.28a7.66,7.66,0,0,1,5.68-2.38Z"/><path class="cls-3" d="M78.32,242.22l-1.75,5.3H74.32L80,230.68h2.62l5.75,16.84H86.09l-1.8-5.3Zm5.52-1.7-1.65-4.84c-.37-1.1-.62-2.1-.87-3.08h0c-.25,1-.53,2-.85,3.05l-1.65,4.87Z"/><path class="cls-3" d="M90.74,239.2c0-1.43,0-2.65-.1-3.77h1.93l.07,2.37h.1a3.64,3.64,0,0,1,3.35-2.65,2.41,2.41,0,0,1,.63.08v2.07a3.32,3.32,0,0,0-.75-.08,3.09,3.09,0,0,0-3,2.83,6.18,6.18,0,0,0-.1,1v6.45H90.74Z"/><path class="cls-3" d="M102.17,232v3.48h3.15v1.67h-3.15v6.52c0,1.5.42,2.35,1.65,2.35a4.64,4.64,0,0,0,1.27-.15l.1,1.65a5.26,5.26,0,0,1-2,.3,3,3,0,0,1-2.37-.92,4.47,4.47,0,0,1-.85-3.15v-6.6H98.14v-1.67H100v-2.9Z"/><path class="cls-3" d="M110.24,232a1.29,1.29,0,0,1-1.4,1.35,1.31,1.31,0,0,1-1.32-1.35,1.34,1.34,0,0,1,1.37-1.38A1.3,1.3,0,0,1,110.24,232Zm-2.45,15.49V235.43H110v12.09Z"/><path class="cls-3" d="M113.87,247.52V237.1h-1.7v-1.67h1.7v-.65c0-3.2,1.87-5.28,5.27-5.28a6,6,0,0,1,3.07.8l-.62,1.68a4.61,4.61,0,0,0-2.55-.7c-2.32,0-3,1.62-3,3.55v.6h7v12.09h-2.17V237.1H116v10.42Z"/><path class="cls-3" d="M135.34,247.07a8.13,8.13,0,0,1-3.48.7c-3.64,0-6-2.47-6-6.17a6.15,6.15,0,0,1,6.5-6.42,7.37,7.37,0,0,1,3,.62l-.5,1.7a5.12,5.12,0,0,0-2.55-.57c-2.77,0-4.27,2-4.27,4.57,0,2.8,1.8,4.52,4.19,4.52a6.16,6.16,0,0,0,2.7-.6Z"/><path class="cls-3" d="M140.37,232a1.37,1.37,0,0,1-2.73,0,1.35,1.35,0,0,1,1.38-1.38A1.31,1.31,0,0,1,140.37,232Zm-2.45,15.49V235.43h2.2v12.09Z"/><path class="cls-3" d="M150.46,247.52l-.17-1.52h-.08a4.49,4.49,0,0,1-3.7,1.8,3.45,3.45,0,0,1-3.69-3.48c0-2.92,2.6-4.52,7.27-4.5v-.25a2.49,2.49,0,0,0-2.75-2.79,6,6,0,0,0-3.15.9l-.5-1.45a7.51,7.51,0,0,1,4-1.08c3.7,0,4.6,2.53,4.6,4.95v4.52a17,17,0,0,0,.2,2.9Zm-.32-6.17c-2.4,0-5.12.37-5.12,2.72a1.94,1.94,0,0,0,2.07,2.1,3,3,0,0,0,2.92-2,2.21,2.21,0,0,0,.13-.7Z"/><path class="cls-3" d="M155.82,229.78H158v17.74h-2.19Z"/><path class="cls-3" d="M169.26,230.68v16.84h-2.17V230.68Z"/><path class="cls-3" d="M173.24,238.7c0-1.25,0-2.27-.1-3.27h2l.12,2h0a4.45,4.45,0,0,1,4-2.28c1.68,0,4.28,1,4.28,5.15v7.22h-2.2v-7c0-2-.73-3.58-2.8-3.58a3.13,3.13,0,0,0-2.95,2.25,3.2,3.2,0,0,0-.15,1v7.27h-2.2Z"/><path class="cls-3" d="M189.66,232v3.48h3.15v1.67h-3.15v6.52c0,1.5.43,2.35,1.65,2.35a4.73,4.73,0,0,0,1.28-.15l.1,1.65a5.3,5.3,0,0,1-1.95.3,3.06,3.06,0,0,1-2.38-.92,4.52,4.52,0,0,1-.85-3.15v-6.6h-1.87v-1.67h1.87v-2.9Z"/><path class="cls-3" d="M196.36,241.87c0,3,1.95,4.2,4.15,4.2a7.93,7.93,0,0,0,3.35-.62l.38,1.57a9.83,9.83,0,0,1-4,.75c-3.72,0-6-2.45-6-6.1s2.15-6.52,5.68-6.52c3.95,0,5,3.48,5,5.7a7.09,7.09,0,0,1-.08,1Zm6.45-1.57c0-1.4-.57-3.57-3.05-3.57-2.22,0-3.2,2-3.37,3.57Z"/><path class="cls-3" d="M207.67,229.78h2.19v17.74h-2.19Z"/><path class="cls-3" d="M213.56,229.78h2.2v17.74h-2.2Z"/><path class="cls-3" d="M221.91,232a1.29,1.29,0,0,1-1.4,1.35,1.31,1.31,0,0,1-1.32-1.35,1.34,1.34,0,0,1,1.37-1.38A1.3,1.3,0,0,1,221.91,232Zm-2.44,15.49V235.43h2.19v12.09Z"/><path class="cls-3" d="M235.74,235.43c-.05.87-.1,1.85-.1,3.32v7c0,2.78-.55,4.48-1.73,5.53a6.4,6.4,0,0,1-4.4,1.45,7.78,7.78,0,0,1-4-1l.55-1.68a6.82,6.82,0,0,0,3.55,1c2.25,0,3.9-1.17,3.9-4.22v-1.35h-.05a4.34,4.34,0,0,1-3.85,2c-3,0-5.15-2.55-5.15-5.9,0-4.1,2.67-6.42,5.45-6.42a4,4,0,0,1,3.77,2.1h.05l.1-1.82Zm-2.28,4.77a3.12,3.12,0,0,0-.12-1,3.18,3.18,0,0,0-3.08-2.32c-2.1,0-3.6,1.77-3.6,4.57,0,2.37,1.2,4.35,3.58,4.35a3.22,3.22,0,0,0,3-2.25,4,4,0,0,0,.17-1.18Z"/><path class="cls-3" d="M240.51,241.87c.05,3,2,4.2,4.15,4.2a7.93,7.93,0,0,0,3.35-.62l.38,1.57a9.83,9.83,0,0,1-4,.75c-3.72,0-6-2.45-6-6.1s2.15-6.52,5.68-6.52c3.95,0,5,3.48,5,5.7a7.09,7.09,0,0,1-.08,1ZM247,240.3c0-1.4-.57-3.57-3.05-3.57-2.22,0-3.2,2-3.37,3.57Z"/><path class="cls-3" d="M251.81,238.7c0-1.25,0-2.27-.1-3.27h1.95l.13,2h.05a4.45,4.45,0,0,1,4-2.28c1.67,0,4.27,1,4.27,5.15v7.22h-2.2v-7c0-2-.72-3.58-2.8-3.58a3.14,3.14,0,0,0-3,2.25,3.2,3.2,0,0,0-.15,1v7.27h-2.2Z"/><path class="cls-3" d="M274.31,247.07a8.08,8.08,0,0,1-3.47.7c-3.65,0-6-2.47-6-6.17a6.15,6.15,0,0,1,6.5-6.42,7.37,7.37,0,0,1,3.05.62l-.5,1.7a5.09,5.09,0,0,0-2.55-.57c-2.77,0-4.27,2-4.27,4.57,0,2.8,1.8,4.52,4.2,4.52a6.2,6.2,0,0,0,2.7-.6Z"/><path class="cls-3" d="M278,241.87c.05,3,2,4.2,4.15,4.2a7.93,7.93,0,0,0,3.35-.62l.38,1.57a9.83,9.83,0,0,1-4,.75c-3.72,0-5.95-2.45-5.95-6.1s2.15-6.52,5.68-6.52c3.95,0,5,3.48,5,5.7a7.09,7.09,0,0,1-.08,1Zm6.45-1.57c0-1.4-.57-3.57-3.05-3.57-2.22,0-3.2,2-3.37,3.57Z"/><path class="cls-3" d="M296.81,232.53h-5.12v-1.85h12.47v1.85H299v15h-2.2Z"/><path class="cls-3" d="M304.84,239.2c0-1.43,0-2.65-.1-3.77h1.92l.08,2.37h.1a3.63,3.63,0,0,1,3.35-2.65,2.33,2.33,0,0,1,.62.08v2.07a3.25,3.25,0,0,0-.75-.08,3.09,3.09,0,0,0-2.95,2.83,6.18,6.18,0,0,0-.1,1v6.45h-2.17Z"/><path class="cls-3" d="M319.59,247.52l-.18-1.52h-.07a4.52,4.52,0,0,1-3.7,1.8,3.45,3.45,0,0,1-3.7-3.48c0-2.92,2.6-4.52,7.27-4.5v-.25a2.49,2.49,0,0,0-2.75-2.79,6,6,0,0,0-3.15.9l-.5-1.45a7.52,7.52,0,0,1,4-1.08c3.7,0,4.6,2.53,4.6,4.95v4.52a17,17,0,0,0,.2,2.9Zm-.33-6.17c-2.4,0-5.12.37-5.12,2.72a1.94,1.94,0,0,0,2.07,2.1,3,3,0,0,0,2.93-2,2.51,2.51,0,0,0,.12-.7Z"/><path class="cls-3" d="M340.09,231.93a4.76,4.76,0,0,0-2.45-.65c-2.33,0-3,1.62-3,3.55v.6h7.05v12.09h-2.2V237.1h-4.82v10.42h-2.2V237.1h-5.1v10.42h-2.18V237.1h-1.7v-1.67h1.7V235a5.5,5.5,0,0,1,1.45-4,4.2,4.2,0,0,1,3.1-1.17,5.27,5.27,0,0,1,2.13.52l-.6,1.63a3.45,3.45,0,0,0-1.53-.43,2,2,0,0,0-1.57.65,4.23,4.23,0,0,0-.8,2.8v.48h5.1v-.65c0-3.2,1.9-5.28,5.3-5.28a5.91,5.91,0,0,1,3,.78Z"/><path class="cls-3" d="M353.94,247.07a8.13,8.13,0,0,1-3.48.7c-3.65,0-6-2.47-6-6.17a6.15,6.15,0,0,1,6.5-6.42,7.37,7.37,0,0,1,3.05.62l-.5,1.7a5.12,5.12,0,0,0-2.55-.57c-2.78,0-4.28,2-4.28,4.57,0,2.8,1.8,4.52,4.2,4.52a6.16,6.16,0,0,0,2.7-.6Z"/><path class="cls-3" d="M376.28,238.93c0,5.79-3.52,8.87-7.82,8.87s-7.57-3.45-7.57-8.55c0-5.35,3.32-8.85,7.82-8.85S376.28,233.93,376.28,238.93Zm-13.07.27c0,3.6,2,6.82,5.38,6.82s5.4-3.17,5.4-7c0-3.34-1.75-6.84-5.38-6.84S363.21,235.5,363.21,239.2Z"/><path class="cls-3" d="M379,239.37c0-1.54-.05-2.79-.1-3.94h2l.1,2.07h.05a4.77,4.77,0,0,1,4.3-2.35c2.93,0,5.13,2.48,5.13,6.15,0,4.35-2.65,6.5-5.5,6.5a4.26,4.26,0,0,1-3.73-1.9h-.05v6.57H379Zm2.17,3.23a5.06,5.06,0,0,0,.1.9,3.4,3.4,0,0,0,3.3,2.57c2.33,0,3.68-1.9,3.68-4.67,0-2.43-1.28-4.5-3.6-4.5a3.52,3.52,0,0,0-3.33,2.72,3.85,3.85,0,0,0-.15.9Z"/><path class="cls-3" d="M394.49,241.87c.05,3,1.95,4.2,4.15,4.2a8,8,0,0,0,3.35-.62l.37,1.57a9.77,9.77,0,0,1-4,.75c-3.73,0-5.95-2.45-5.95-6.1s2.15-6.52,5.67-6.52c3.95,0,5,3.48,5,5.7a9.49,9.49,0,0,1-.07,1Zm6.45-1.57c0-1.4-.58-3.57-3.05-3.57-2.23,0-3.2,2-3.38,3.57Z"/><path class="cls-3" d="M405.79,239.2c0-1.43,0-2.65-.1-3.77h1.92l.08,2.37h.1a3.63,3.63,0,0,1,3.35-2.65,2.33,2.33,0,0,1,.62.08v2.07a3.25,3.25,0,0,0-.75-.08,3.09,3.09,0,0,0-2.95,2.83,6.18,6.18,0,0,0-.1,1v6.45h-2.17Z"/><path class="cls-3" d="M420.54,247.52l-.18-1.52h-.07a4.52,4.52,0,0,1-3.7,1.8,3.45,3.45,0,0,1-3.7-3.48c0-2.92,2.6-4.52,7.27-4.5v-.25a2.49,2.49,0,0,0-2.75-2.79,6,6,0,0,0-3.15.9l-.5-1.45a7.52,7.52,0,0,1,4-1.08c3.7,0,4.6,2.53,4.6,4.95v4.52a17,17,0,0,0,.2,2.9Zm-.33-6.17c-2.4,0-5.12.37-5.12,2.72a1.94,1.94,0,0,0,2.07,2.1,3,3,0,0,0,2.93-2,2.51,2.51,0,0,0,.12-.7Z"/><path class="cls-3" d="M428.44,232v3.48h3.15v1.67h-3.15v6.52c0,1.5.42,2.35,1.65,2.35a4.64,4.64,0,0,0,1.27-.15l.1,1.65a5.26,5.26,0,0,1-1.95.3,3,3,0,0,1-2.37-.92,4.47,4.47,0,0,1-.85-3.15v-6.6h-1.88v-1.67h1.88v-2.9Z"/><path class="cls-3" d="M436.51,232a1.29,1.29,0,0,1-1.4,1.35,1.31,1.31,0,0,1-1.32-1.35,1.34,1.34,0,0,1,1.37-1.38A1.3,1.3,0,0,1,436.51,232Zm-2.45,15.49V235.43h2.2v12.09Z"/><path class="cls-3" d="M450.86,241.37c0,4.48-3.1,6.43-6,6.43-3.28,0-5.8-2.4-5.8-6.23,0-4,2.65-6.42,6-6.42S450.86,237.68,450.86,241.37Zm-9.6.13c0,2.65,1.53,4.65,3.68,4.65s3.67-2,3.67-4.7c0-2-1-4.65-3.62-4.65S441.26,239.2,441.26,241.5Z"/><path class="cls-3" d="M453.64,238.7c0-1.25,0-2.27-.1-3.27h1.95l.12,2h.05a4.45,4.45,0,0,1,4-2.28c1.68,0,4.27,1,4.27,5.15v7.22h-2.19v-7c0-2-.73-3.58-2.8-3.58a3.13,3.13,0,0,0-2.95,2.25,3.2,3.2,0,0,0-.15,1v7.27h-2.2Z"/><path class="cls-3" d="M467.21,245.27a5.72,5.72,0,0,0,2.9.88c1.6,0,2.35-.8,2.35-1.8s-.62-1.63-2.25-2.23c-2.17-.77-3.2-2-3.2-3.42,0-1.95,1.58-3.55,4.18-3.55a6,6,0,0,1,3,.75l-.55,1.6a4.69,4.69,0,0,0-2.47-.7c-1.3,0-2,.75-2,1.65s.73,1.45,2.3,2.05c2.1.8,3.18,1.85,3.18,3.65,0,2.12-1.65,3.62-4.53,3.62a6.92,6.92,0,0,1-3.4-.82Z"/><path class="cls-3" d="M489.41,247.52l-.18-1.52h-.07a4.49,4.49,0,0,1-3.7,1.8,3.45,3.45,0,0,1-3.7-3.48c0-2.92,2.6-4.52,7.28-4.5v-.25a2.49,2.49,0,0,0-2.75-2.79,6,6,0,0,0-3.15.9l-.5-1.45a7.51,7.51,0,0,1,4-1.08c3.7,0,4.6,2.53,4.6,4.95v4.52a17,17,0,0,0,.2,2.9Zm-.32-6.17c-2.4,0-5.13.37-5.13,2.72a2,2,0,0,0,2.08,2.1,3,3,0,0,0,2.92-2,2.21,2.21,0,0,0,.13-.7Z"/><path class="cls-3" d="M494.76,238.7c0-1.25,0-2.27-.1-3.27h1.95l.13,2h.05a4.45,4.45,0,0,1,4-2.28c1.68,0,4.28,1,4.28,5.15v7.22h-2.2v-7c0-2-.73-3.58-2.8-3.58a3.14,3.14,0,0,0-2.95,2.25,3.2,3.2,0,0,0-.15,1v7.27h-2.2Z"/><path class="cls-3" d="M519.08,229.78V244.4c0,1.07,0,2.3.1,3.12h-2l-.1-2.1h-.05a4.49,4.49,0,0,1-4.13,2.38c-2.92,0-5.17-2.48-5.17-6.15,0-4,2.48-6.5,5.42-6.5a4.06,4.06,0,0,1,3.65,1.85h0v-7.22Zm-2.2,10.57a3.56,3.56,0,0,0-.1-.92,3.22,3.22,0,0,0-3.17-2.55c-2.27,0-3.62,2-3.62,4.67,0,2.45,1.2,4.47,3.57,4.47a3.3,3.3,0,0,0,3.22-2.62,3.6,3.6,0,0,0,.1-1Z"/><path class="cls-3" d="M542.31,240.12c-.13-2.35-.28-5.17-.25-7.27H542c-.57,2-1.27,4.08-2.12,6.4l-3,8.17h-1.65l-2.72-8c-.8-2.37-1.47-4.55-2-6.55h0c0,2.1-.17,4.92-.33,7.45l-.44,7.22h-2.08l1.18-16.84h2.77l2.87,8.14c.7,2.08,1.28,3.93,1.7,5.68h.08c.42-1.7,1-3.55,1.77-5.68l3-8.14h2.78l1.05,16.84h-2.13Z"/><path class="cls-3" d="M555,247.52l-.17-1.52h-.08a4.49,4.49,0,0,1-3.69,1.8,3.45,3.45,0,0,1-3.7-3.48c0-2.92,2.6-4.52,7.27-4.5v-.25a2.49,2.49,0,0,0-2.75-2.79,6,6,0,0,0-3.15.9l-.5-1.45a7.51,7.51,0,0,1,4-1.08c3.7,0,4.6,2.53,4.6,4.95v4.52a17,17,0,0,0,.2,2.9Zm-.32-6.17c-2.4,0-5.12.37-5.12,2.72a1.94,1.94,0,0,0,2.07,2.1,3,3,0,0,0,2.92-2,2.21,2.21,0,0,0,.13-.7Z"/><path class="cls-3" d="M560.34,238.7c0-1.25,0-2.27-.1-3.27h1.94l.13,2h.05a4.45,4.45,0,0,1,4-2.28c1.67,0,4.27,1,4.27,5.15v7.22h-2.2v-7c0-2-.72-3.58-2.8-3.58a3.14,3.14,0,0,0-3,2.25,3.51,3.51,0,0,0-.14,1v7.27h-2.2Z"/><path class="cls-3" d="M580.91,247.52l-.18-1.52h-.07a4.52,4.52,0,0,1-3.7,1.8,3.45,3.45,0,0,1-3.7-3.48c0-2.92,2.6-4.52,7.27-4.5v-.25a2.49,2.49,0,0,0-2.75-2.79,6,6,0,0,0-3.14.9l-.5-1.45a7.51,7.51,0,0,1,4-1.08c3.7,0,4.6,2.53,4.6,4.95v4.52a17,17,0,0,0,.2,2.9Zm-.33-6.17c-2.4,0-5.12.37-5.12,2.72a1.94,1.94,0,0,0,2.07,2.1,3,3,0,0,0,2.93-2,2.51,2.51,0,0,0,.12-.7Z"/><path class="cls-3" d="M596.68,235.43c0,.87-.1,1.85-.1,3.32v7c0,2.78-.55,4.48-1.72,5.53a6.43,6.43,0,0,1-4.4,1.45,7.84,7.84,0,0,1-4-1l.56-1.68a6.78,6.78,0,0,0,3.54,1c2.25,0,3.9-1.17,3.9-4.22v-1.35h0a4.31,4.31,0,0,1-3.85,2c-3,0-5.14-2.55-5.14-5.9,0-4.1,2.67-6.42,5.44-6.42a4,4,0,0,1,3.78,2.1h0l.1-1.82Zm-2.27,4.77a3.11,3.11,0,0,0-.13-1,3.16,3.16,0,0,0-3.07-2.32c-2.1,0-3.6,1.77-3.6,4.57,0,2.37,1.2,4.35,3.57,4.35a3.21,3.21,0,0,0,3.05-2.25,3.72,3.72,0,0,0,.18-1.18Z"/><path class="cls-3" d="M601.46,241.87c0,3,1.95,4.2,4.15,4.2a8,8,0,0,0,3.35-.62l.37,1.57a9.77,9.77,0,0,1-4,.75c-3.73,0-5.95-2.45-5.95-6.1s2.15-6.52,5.67-6.52c4,0,5,3.48,5,5.7a9.49,9.49,0,0,1-.07,1Zm6.45-1.57c0-1.4-.58-3.57-3-3.57-2.23,0-3.2,2-3.38,3.57Z"/><path class="cls-3" d="M612.76,238.7c0-1.25,0-2.27-.1-3.27h1.92l.1,1.95h.08a4.17,4.17,0,0,1,3.8-2.23,3.56,3.56,0,0,1,3.42,2.43h0a5.07,5.07,0,0,1,1.35-1.58,4.15,4.15,0,0,1,2.68-.85c1.6,0,4,1,4,5.25v7.12h-2.15v-6.85c0-2.32-.85-3.72-2.62-3.72a2.85,2.85,0,0,0-2.6,2,3.62,3.62,0,0,0-.18,1.1v7.47h-2.15v-7.25c0-1.92-.85-3.32-2.52-3.32a3,3,0,0,0-2.73,2.2,3.12,3.12,0,0,0-.17,1.07v7.3h-2.15Z"/><path class="cls-3" d="M634.83,241.87c.06,3,1.95,4.2,4.15,4.2a7.93,7.93,0,0,0,3.35-.62l.38,1.57a9.83,9.83,0,0,1-4,.75c-3.72,0-5.94-2.45-5.94-6.1s2.15-6.52,5.67-6.52c4,0,5,3.48,5,5.7a7.09,7.09,0,0,1-.08,1Zm6.45-1.57c0-1.4-.57-3.57-3-3.57-2.22,0-3.2,2-3.37,3.57Z"/><path class="cls-3" d="M646.13,238.7c0-1.25,0-2.27-.1-3.27h2l.13,2h0a4.45,4.45,0,0,1,4-2.28c1.67,0,4.27,1,4.27,5.15v7.22h-2.2v-7c0-2-.72-3.58-2.8-3.58a3.14,3.14,0,0,0-2.95,2.25,3.2,3.2,0,0,0-.15,1v7.27h-2.2Z"/><path class="cls-3" d="M662.56,232v3.48h3.15v1.67h-3.15v6.52c0,1.5.42,2.35,1.65,2.35a4.64,4.64,0,0,0,1.27-.15l.1,1.65a5.26,5.26,0,0,1-2,.3,3,3,0,0,1-2.37-.92,4.52,4.52,0,0,1-.85-3.15v-6.6h-1.87v-1.67h1.87v-2.9Z"/><path class="cls-3" d="M673.26,244.87a7.69,7.69,0,0,0,3.9,1.1c2.22,0,3.52-1.17,3.52-2.87s-.9-2.48-3.17-3.35c-2.75-1-4.45-2.4-4.45-4.77,0-2.63,2.17-4.58,5.45-4.58a7.58,7.58,0,0,1,3.72.83l-.6,1.77a6.69,6.69,0,0,0-3.2-.8c-2.3,0-3.17,1.38-3.17,2.53,0,1.57,1,2.35,3.35,3.24,2.85,1.1,4.3,2.48,4.3,4.95s-1.93,4.85-5.9,4.85a8.69,8.69,0,0,1-4.3-1.07Z"/><path class="cls-3" d="M686.41,235.43l2.65,7.14c.27.8.57,1.75.77,2.48h0c.23-.73.48-1.65.78-2.53l2.4-7.09h2.32l-3.3,8.62c-1.57,4.15-2.65,6.27-4.15,7.57a6,6,0,0,1-2.7,1.43l-.55-1.85a6,6,0,0,0,1.93-1.08,6.59,6.59,0,0,0,1.85-2.45,1.53,1.53,0,0,0,.17-.52,1.94,1.94,0,0,0-.15-.58L684,235.43Z"/><path class="cls-3" d="M696.93,245.27a5.72,5.72,0,0,0,2.9.88c1.6,0,2.35-.8,2.35-1.8s-.62-1.63-2.25-2.23c-2.17-.77-3.2-2-3.2-3.42,0-1.95,1.58-3.55,4.18-3.55a6,6,0,0,1,3,.75l-.55,1.6a4.69,4.69,0,0,0-2.47-.7c-1.3,0-2,.75-2,1.65s.73,1.45,2.3,2.05c2.1.8,3.18,1.85,3.18,3.65,0,2.12-1.65,3.62-4.53,3.62a6.92,6.92,0,0,1-3.4-.82Z"/><path class="cls-3" d="M709.78,232v3.48h3.15v1.67h-3.15v6.52c0,1.5.43,2.35,1.65,2.35a4.73,4.73,0,0,0,1.28-.15l.1,1.65a5.3,5.3,0,0,1-1.95.3,3.06,3.06,0,0,1-2.38-.92,4.52,4.52,0,0,1-.85-3.15v-6.6h-1.87v-1.67h1.87v-2.9Z"/><path class="cls-3" d="M716.48,241.87c0,3,1.95,4.2,4.15,4.2a7.93,7.93,0,0,0,3.35-.62l.38,1.57a9.83,9.83,0,0,1-4,.75c-3.72,0-6-2.45-6-6.1s2.15-6.52,5.68-6.52c4,0,5,3.48,5,5.7a7.09,7.09,0,0,1-.08,1Zm6.45-1.57c0-1.4-.57-3.57-3-3.57-2.22,0-3.2,2-3.37,3.57Z"/><path class="cls-3" d="M727.78,238.7c0-1.25,0-2.27-.1-3.27h1.93l.1,1.95h.07a4.18,4.18,0,0,1,3.8-2.23,3.59,3.59,0,0,1,3.43,2.43h0a4.94,4.94,0,0,1,1.35-1.58,4.11,4.11,0,0,1,2.67-.85c1.6,0,4,1,4,5.25v7.12h-2.15v-6.85c0-2.32-.85-3.72-2.63-3.72a2.86,2.86,0,0,0-2.6,2,3.63,3.63,0,0,0-.17,1.1v7.47h-2.15v-7.25c0-1.92-.85-3.32-2.53-3.32a3,3,0,0,0-2.72,2.2,2.9,2.9,0,0,0-.18,1.07v7.3h-2.15Z"/></svg>