<svg version="1.2" baseProfile="tiny-ps" xmlns="http://www.w3.org/2000/svg" viewBox="0 0 697 216" width="697" height="216">
	<title>AI-TOMS_UI-logo-svg</title>
	<style>
		tspan { white-space:pre }
		.shp0 { fill: #155f7b } 
		.shp1 { fill: #ffffff } 
		.shp2 { fill: #929497 } 
	</style>
	<path id="Layer" class="shp0" d="M106.28 79.22L160.56 187.78L196.87 187.78L106.28 6.6L15.69 187.78L52.01 187.78L106.28 79.22L106.28 79.22Z" />
	<path id="Layer" class="shp0" d="M188.32 86.22L224.63 86.22L224.63 187.78L188.32 187.78L188.32 86.22Z" />
	<path id="Layer" class="shp1" d="M120.74 58.61L120.74 68.91C120.74 68.91 72.52 81.64 74.33 97.19C76.14 112.74 140.33 187.78 140.33 187.78L82.54 187.78C82.54 187.78 28.5 115.53 33.32 101C38.14 86.47 57.14 74 68.9 68.91C80.66 63.82 108.35 60.6 120.74 58.61Z" />
	<path id="Layer" class="shp2" d="M89.52 96.72C89.52 77.19 143.11 65.33 181.9 59.29C181.84 58.51 181.79 57.73 181.79 56.93C181.79 56.45 181.8 55.97 181.82 55.49C181.84 55.01 181.88 54.53 181.92 54.05C181.96 53.57 182.01 53.09 182.07 52.62C182.14 52.14 182.21 51.66 182.29 51.19C122.42 51.13 14.49 57.06 15.42 100.78C15.42 133.22 43.84 139.49 65.56 187.78L107.64 187.78C107.33 187.08 107.01 186.38 106.67 185.68C106.33 184.99 105.98 184.31 105.62 183.63C105.26 182.95 104.88 182.28 104.49 181.62C104.1 180.95 103.7 180.3 103.28 179.65C102.27 178.1 101.24 176.57 100.18 175.05C99.13 173.53 98.05 172.03 96.95 170.55C95.85 169.06 94.72 167.59 93.58 166.14C92.43 164.69 91.27 163.26 90.08 161.84L75.41 144.09C74.13 142.55 72.87 141 71.64 139.42C70.41 137.85 69.21 136.25 68.03 134.63C66.85 133.02 65.7 131.39 64.57 129.73C63.45 128.08 62.35 126.41 61.28 124.72C60.71 123.81 60.16 122.88 59.63 121.95C59.11 121.01 58.6 120.06 58.12 119.1C57.64 118.14 57.18 117.17 56.74 116.19C56.3 115.21 55.88 114.22 55.49 113.22C55.04 112.1 54.65 110.95 54.33 109.78C54.01 108.62 53.75 107.43 53.56 106.24C53.37 105.04 53.25 103.84 53.19 102.63C53.14 101.42 53.15 100.21 53.23 99C53.33 97.81 53.51 96.63 53.76 95.47C54.01 94.3 54.34 93.16 54.74 92.03C55.15 90.91 55.62 89.82 56.17 88.76C56.72 87.7 57.33 86.68 58.01 85.7C58.62 84.86 59.26 84.05 59.94 83.26C60.63 82.48 61.34 81.72 62.09 81C62.84 80.28 63.61 79.6 64.42 78.94C65.23 78.29 66.07 77.68 66.93 77.1C73.44 72.68 80.41 70.1 87.39 68.17C89.12 67.7 90.87 67.27 92.62 66.88C94.38 66.5 96.14 66.15 97.91 65.84C99.68 65.53 101.46 65.27 103.24 65.04C105.02 64.82 106.81 64.63 108.6 64.49L108.76 66.42C107.02 66.75 105.29 67.11 103.57 67.52C101.85 67.92 100.14 68.37 98.44 68.85C96.74 69.33 95.06 69.85 93.38 70.41C91.7 70.97 90.04 71.57 88.39 72.2C81.82 74.78 75.39 78 70 82.49C69.33 83.03 68.69 83.6 68.08 84.2C67.46 84.79 66.87 85.42 66.31 86.06C65.74 86.71 65.21 87.38 64.7 88.07C64.19 88.76 63.72 89.48 63.27 90.21C62.86 90.91 62.5 91.64 62.19 92.4C61.88 93.15 61.62 93.92 61.4 94.7C61.19 95.49 61.03 96.28 60.92 97.09C60.81 97.9 60.75 98.71 60.75 99.52C60.77 100.34 60.84 101.15 60.95 101.96C61.06 102.77 61.22 103.57 61.42 104.36C61.63 105.15 61.87 105.93 62.16 106.69C62.45 107.46 62.79 108.2 63.16 108.93C63.56 109.73 63.97 110.52 64.41 111.3C64.84 112.08 65.29 112.84 65.76 113.6C66.23 114.36 66.72 115.11 67.22 115.84C67.73 116.58 68.25 117.3 68.79 118.01C69.91 119.47 71.06 120.92 72.23 122.34C73.4 123.76 74.6 125.17 75.82 126.56C77.03 127.94 78.27 129.31 79.54 130.65C80.8 131.99 82.08 133.32 83.39 134.62L99.39 150.71C100.8 152.11 102.19 153.54 103.56 154.98C104.92 156.43 106.27 157.89 107.59 159.38C108.91 160.87 110.21 162.37 111.48 163.9C112.75 165.43 114 166.97 115.23 168.54C115.91 169.42 116.57 170.31 117.22 171.22C117.86 172.13 118.48 173.05 119.08 173.99C119.68 174.92 120.25 175.87 120.81 176.83C121.37 177.8 121.9 178.77 122.41 179.76C122.73 180.4 123.04 181.05 123.33 181.7C123.63 182.36 123.91 183.02 124.17 183.69C124.43 184.36 124.68 185.03 124.91 185.71C125.14 186.39 125.36 187.07 125.56 187.76L159.15 187.76C159.15 157.18 89.52 117 89.52 96.72Z" />
	<path id="Layer" class="shp2" d="M206.48 73.17C197.03 73.17 189.39 65.53 189.39 56.08C189.39 46.63 197.03 38.99 206.48 38.99C215.93 38.99 223.57 46.63 223.57 56.08C223.57 65.53 215.93 73.17 206.48 73.17Z" />
	<path id="Layer" class="shp1" d="M271.56 156.8C271.19 156.36 270.85 155.89 270.56 155.4C270.27 154.9 270.03 154.38 269.84 153.84C269.65 153.29 269.5 152.74 269.41 152.17C269.32 151.6 269.29 151.02 269.3 150.45L269.3 84.57C269.3 84.27 269.26 83.97 269.19 83.68C269.12 83.39 269.02 83.11 268.89 82.84C268.76 82.57 268.59 82.32 268.4 82.09C268.21 81.86 268 81.65 267.76 81.47C267.47 81.32 267.17 81.2 266.87 81.09C266.57 80.98 266.25 80.89 265.94 80.83C265.62 80.76 265.3 80.71 264.98 80.69C264.66 80.67 264.33 80.66 264.01 80.68L245.3 80.68C244.77 80.69 244.24 80.65 243.72 80.55C243.2 80.45 242.7 80.29 242.21 80.09C241.72 79.89 241.26 79.63 240.82 79.33C240.39 79.03 239.98 78.68 239.62 78.3C238.08 76.72 237.3 74.3 237.3 71.02C237.3 67.74 238.03 65.33 239.5 63.74C239.87 63.35 240.28 62.99 240.72 62.69C241.17 62.38 241.64 62.12 242.14 61.92C242.64 61.71 243.16 61.56 243.69 61.47C244.22 61.37 244.76 61.34 245.3 61.36L310.73 61.36C311.27 61.34 311.8 61.37 312.33 61.46C312.86 61.55 313.38 61.7 313.88 61.89C314.38 62.09 314.85 62.34 315.3 62.64C315.74 62.94 316.16 63.28 316.53 63.67C317.99 65.21 318.72 67.61 318.72 70.88C318.72 74.15 317.95 76.57 316.4 78.16C316.04 78.54 315.63 78.89 315.2 79.19C314.77 79.49 314.3 79.74 313.81 79.94C313.33 80.15 312.82 80.3 312.3 80.4C311.78 80.5 311.26 80.55 310.73 80.54L292.14 80.54C291.8 80.52 291.46 80.52 291.12 80.55C290.78 80.58 290.44 80.63 290.11 80.71C289.77 80.79 289.45 80.89 289.13 81.02C288.81 81.15 288.5 81.3 288.21 81.47C287.3 82.1 286.85 83.32 286.85 85.15L286.85 150.45C286.88 151.03 286.85 151.62 286.78 152.19C286.7 152.77 286.57 153.34 286.39 153.89C286.2 154.45 285.97 154.98 285.69 155.49C285.41 156 285.09 156.49 284.72 156.94C283.3 158.57 281.13 159.38 278.21 159.39C275.28 159.39 273.07 158.53 271.56 156.8Z" />
	<path id="Layer" fill-rule="evenodd" class="shp1" d="M328.2 105.53C328.34 103.92 328.56 102.31 328.85 100.72C329.14 99.12 329.51 97.55 329.95 95.99C330.39 94.43 330.9 92.89 331.48 91.38C332.03 89.94 332.65 88.53 333.33 87.15C334.01 85.77 334.75 84.42 335.56 83.11C336.36 81.8 337.23 80.53 338.15 79.3C339.08 78.07 340.06 76.88 341.09 75.74C342.1 74.63 343.16 73.58 344.27 72.58C345.38 71.58 346.53 70.63 347.74 69.74C348.94 68.85 350.18 68.02 351.47 67.25C352.75 66.48 354.07 65.78 355.42 65.14C358.15 63.87 361.01 62.89 363.96 62.24C366.9 61.59 369.91 61.26 372.92 61.26C375.93 61.26 378.94 61.59 381.88 62.24C384.83 62.89 387.69 63.87 390.42 65.14C391.77 65.77 393.1 66.47 394.38 67.24C395.66 68.01 396.91 68.83 398.11 69.72C399.31 70.61 400.47 71.56 401.57 72.57C402.68 73.57 403.74 74.63 404.74 75.74C408.96 80.47 412.29 85.93 414.55 91.86C416.81 97.78 417.96 104.07 417.96 110.41C417.96 116.75 416.81 123.04 414.55 128.96C412.29 134.89 408.96 140.35 404.74 145.08C403.74 146.19 402.68 147.25 401.58 148.25C400.47 149.26 399.31 150.21 398.11 151.09C396.91 151.98 395.66 152.81 394.38 153.57C393.1 154.34 391.77 155.04 390.42 155.67C387.69 156.94 384.83 157.92 381.88 158.57C378.94 159.22 375.93 159.55 372.92 159.55C369.91 159.55 366.9 159.22 363.96 158.57C361.01 157.92 358.15 156.94 355.42 155.67C354.07 155.03 352.75 154.33 351.47 153.56C350.18 152.8 348.94 151.97 347.74 151.08C346.53 150.19 345.38 149.24 344.27 148.24C343.16 147.24 342.1 146.19 341.09 145.08C340.06 143.94 339.08 142.75 338.15 141.52C337.23 140.29 336.36 139.02 335.56 137.71C334.75 136.4 334.01 135.05 333.33 133.67C332.65 132.29 332.03 130.88 331.48 129.44C330.9 127.92 330.38 126.38 329.94 124.82C329.5 123.25 329.14 121.67 328.84 120.07C328.55 118.48 328.34 116.86 328.19 115.25C328.05 113.63 327.99 112 328 110.38C327.99 108.76 328.06 107.14 328.2 105.53ZM345.55 110.52C345.54 112.44 345.71 114.36 346.06 116.25C346.41 118.14 346.93 119.99 347.63 121.79C348.32 123.58 349.18 125.3 350.19 126.94C351.21 128.57 352.37 130.1 353.67 131.52C354.28 132.18 354.93 132.82 355.6 133.42C356.28 134.02 356.98 134.58 357.71 135.12C358.45 135.65 359.2 136.14 359.98 136.6C360.76 137.06 361.56 137.48 362.38 137.86C364.02 138.62 365.74 139.19 367.51 139.58C369.27 139.97 371.07 140.16 372.88 140.16C374.69 140.16 376.49 139.97 378.25 139.58C380.02 139.19 381.74 138.62 383.38 137.86C384.2 137.48 385 137.06 385.78 136.6C386.56 136.14 387.31 135.65 388.05 135.12C388.78 134.58 389.48 134.02 390.16 133.42C390.83 132.82 391.48 132.18 392.09 131.52C392.72 130.83 393.32 130.12 393.89 129.37C394.46 128.63 394.99 127.86 395.49 127.07C395.98 126.28 396.44 125.47 396.87 124.63C397.29 123.8 397.67 122.95 398.02 122.08C398.39 121.16 398.71 120.22 398.99 119.27C399.27 118.32 399.5 117.36 399.69 116.38C399.87 115.41 400.01 114.43 400.1 113.44C400.19 112.45 400.23 111.46 400.22 110.47C400.23 109.47 400.19 108.48 400.1 107.48C400.01 106.49 399.87 105.5 399.69 104.52C399.5 103.54 399.27 102.57 398.99 101.62C398.71 100.66 398.39 99.72 398.02 98.79C397.68 97.92 397.29 97.06 396.87 96.22C396.45 95.38 395.99 94.56 395.49 93.76C395 92.96 394.46 92.19 393.9 91.44C393.33 90.69 392.72 89.97 392.09 89.28C391.47 88.61 390.83 87.98 390.15 87.37C389.48 86.77 388.77 86.2 388.04 85.66C387.31 85.12 386.55 84.62 385.78 84.15C385 83.69 384.2 83.26 383.38 82.87C381.74 82.09 380.03 81.5 378.26 81.1C376.5 80.7 374.69 80.5 372.88 80.5C371.07 80.5 369.26 80.7 367.5 81.1C365.73 81.5 364.02 82.09 362.38 82.87C361.56 83.26 360.76 83.69 359.98 84.15C359.21 84.62 358.45 85.12 357.72 85.66C356.99 86.2 356.28 86.77 355.61 87.37C354.93 87.98 354.29 88.61 353.67 89.28C353.04 89.97 352.43 90.69 351.86 91.44C351.3 92.19 350.76 92.96 350.27 93.76C349.77 94.56 349.31 95.38 348.89 96.22C348.47 97.06 348.08 97.92 347.74 98.79C347.37 99.72 347.05 100.67 346.78 101.63C346.5 102.59 346.27 103.57 346.09 104.55C345.91 105.53 345.77 106.53 345.69 107.52C345.6 108.52 345.56 109.52 345.57 110.52L345.55 110.52Z" />
	<path id="Layer" class="shp1" d="M433.83 158.67C433.38 158.53 432.95 158.35 432.53 158.14C432.12 157.93 431.72 157.69 431.34 157.41C430.96 157.14 430.61 156.83 430.28 156.5C429.95 156.17 429.65 155.81 429.38 155.43C429.16 155.1 428.96 154.75 428.79 154.38C428.62 154.02 428.48 153.64 428.36 153.26C428.25 152.88 428.16 152.48 428.1 152.09C428.05 151.69 428.02 151.29 428.02 150.89C428.05 150.55 428.08 150.22 428.13 149.88C428.17 149.55 428.21 149.21 428.27 148.88C428.32 148.54 428.38 148.21 428.45 147.88C428.52 147.55 428.59 147.22 428.67 146.89L456.54 67C456.66 66.61 456.82 66.22 456.99 65.85C457.17 65.48 457.37 65.12 457.59 64.77C457.81 64.42 458.06 64.09 458.32 63.78C458.59 63.46 458.87 63.17 459.18 62.89C459.48 62.64 459.8 62.41 460.14 62.21C460.48 62.02 460.83 61.86 461.2 61.73C461.57 61.6 461.95 61.5 462.34 61.44C462.73 61.38 463.12 61.36 463.51 61.37L477.7 61.37C478.09 61.36 478.48 61.38 478.87 61.44C479.25 61.5 479.63 61.6 480 61.73C480.37 61.86 480.73 62.02 481.06 62.22C481.4 62.41 481.72 62.64 482.02 62.89C482.33 63.17 482.61 63.46 482.88 63.78C483.15 64.09 483.39 64.42 483.62 64.77C483.84 65.12 484.04 65.48 484.22 65.85C484.39 66.22 484.54 66.61 484.67 67L503.89 122.06L523.12 67C523.25 66.61 523.4 66.22 523.57 65.85C523.75 65.48 523.95 65.12 524.17 64.77C524.4 64.42 524.64 64.09 524.91 63.78C525.18 63.46 525.46 63.17 525.77 62.89C526.07 62.64 526.39 62.41 526.73 62.22C527.06 62.02 527.42 61.86 527.79 61.73C528.16 61.6 528.54 61.5 528.92 61.44C529.31 61.38 529.7 61.36 530.09 61.37L544.28 61.37C544.67 61.36 545.06 61.38 545.45 61.44C545.84 61.5 546.22 61.6 546.59 61.73C546.96 61.86 547.31 62.02 547.65 62.21C547.99 62.41 548.31 62.64 548.61 62.89C548.92 63.17 549.2 63.46 549.47 63.78C549.73 64.09 549.98 64.42 550.2 64.77C550.42 65.12 550.62 65.48 550.8 65.85C550.97 66.22 551.13 66.61 551.25 67L579.12 146.86C579.2 147.19 579.27 147.52 579.34 147.85C579.4 148.18 579.46 148.51 579.52 148.85C579.57 149.18 579.62 149.52 579.66 149.85C579.7 150.19 579.74 150.52 579.77 150.86C579.77 151.26 579.74 151.66 579.69 152.06C579.63 152.45 579.54 152.85 579.43 153.23C579.31 153.61 579.17 153.99 579 154.35C578.83 154.71 578.64 155.07 578.42 155.4C578.15 155.78 577.85 156.14 577.52 156.47C577.19 156.8 576.83 157.11 576.45 157.38C576.07 157.66 575.67 157.9 575.26 158.11C574.84 158.32 574.41 158.5 573.96 158.64C573.79 158.73 573.62 158.81 573.45 158.88C573.28 158.96 573.1 159.02 572.92 159.08C572.75 159.14 572.56 159.2 572.38 159.24C572.2 159.29 572.02 159.33 571.83 159.36C571.66 159.38 571.5 159.4 571.33 159.42C571.17 159.44 571 159.45 570.83 159.46C570.67 159.48 570.5 159.49 570.33 159.49C570.16 159.5 570 159.5 569.83 159.5C566.31 159.5 563.95 157.68 562.74 154.03L537.19 81.23L512.8 150.89C512.62 151.46 512.43 152.02 512.21 152.58C511.99 153.13 511.75 153.68 511.49 154.21C511.24 154.75 510.96 155.28 510.66 155.79C510.36 156.31 510.04 156.81 509.7 157.3C509.39 157.68 509.04 158.02 508.66 158.32C508.27 158.62 507.85 158.86 507.4 159.06C506.95 159.25 506.48 159.39 506 159.47C505.52 159.55 505.03 159.57 504.54 159.53L503.25 159.53C502.8 159.54 502.35 159.5 501.91 159.43C501.47 159.35 501.04 159.23 500.62 159.07C500.2 158.91 499.8 158.71 499.42 158.47C499.04 158.24 498.68 157.97 498.35 157.66C498.17 157.41 497.99 157.15 497.82 156.89C497.65 156.64 497.49 156.37 497.32 156.11C497.16 155.85 497 155.58 496.85 155.31C496.7 155.04 496.55 154.77 496.41 154.49C496.22 154.11 496.05 153.72 495.88 153.33C495.71 152.94 495.55 152.55 495.4 152.15C495.25 151.75 495.11 151.35 494.97 150.95C494.84 150.55 494.71 150.14 494.6 149.73L470.6 81.26L445.05 154.06C443.76 157.71 441.39 159.54 437.96 159.53C437.79 159.53 437.63 159.53 437.46 159.52C437.29 159.52 437.12 159.51 436.96 159.49C436.79 159.48 436.62 159.47 436.46 159.45C436.29 159.43 436.13 159.41 435.96 159.39C435.77 159.36 435.59 159.32 435.41 159.27C435.23 159.23 435.04 159.17 434.87 159.11C434.69 159.05 434.51 158.99 434.34 158.91C434.17 158.84 434 158.76 433.83 158.67L433.83 158.67Z" />
	<path id="Layer" class="shp1" d="M656.16 140.07C656.72 140.02 657.28 139.9 657.82 139.73C658.36 139.57 658.88 139.34 659.37 139.06C659.87 138.78 660.33 138.45 660.75 138.08C661.18 137.7 661.56 137.29 661.9 136.83C662.29 136.35 662.64 135.84 662.94 135.3C663.24 134.76 663.5 134.2 663.7 133.62C663.9 133.03 664.06 132.43 664.15 131.82C664.25 131.21 664.3 130.6 664.29 129.98C664.31 129.35 664.27 128.72 664.17 128.09C664.07 127.47 663.9 126.86 663.68 126.27C663.46 125.67 663.18 125.1 662.85 124.57C662.52 124.03 662.14 123.52 661.71 123.06C661.31 122.62 660.87 122.23 660.39 121.88C659.91 121.54 659.39 121.25 658.84 121.01C658.3 120.77 657.73 120.6 657.15 120.48C656.57 120.37 655.98 120.31 655.39 120.32L621.84 120.32C620.92 120.33 620 120.28 619.08 120.19C618.17 120.09 617.26 119.95 616.36 119.76C615.46 119.56 614.57 119.32 613.7 119.03C612.82 118.74 611.97 118.4 611.13 118.02C610.31 117.65 609.51 117.24 608.73 116.79C607.95 116.33 607.19 115.84 606.46 115.32C605.73 114.79 605.03 114.23 604.35 113.63C603.68 113.04 603.03 112.41 602.42 111.75C601.79 111.07 601.2 110.36 600.64 109.62C600.08 108.89 599.56 108.12 599.07 107.34C598.59 106.55 598.14 105.75 597.73 104.92C597.31 104.09 596.94 103.24 596.61 102.38C596.25 101.47 595.94 100.54 595.67 99.6C595.4 98.66 595.18 97.71 595 96.75C594.82 95.79 594.69 94.82 594.6 93.85C594.52 92.87 594.47 91.9 594.48 90.92C594.47 89.94 594.52 88.96 594.61 87.99C594.7 87.01 594.83 86.04 595.02 85.08C595.2 84.12 595.43 83.17 595.71 82.23C595.98 81.29 596.3 80.37 596.67 79.46C597.02 78.59 597.4 77.74 597.82 76.9C598.25 76.07 598.71 75.25 599.21 74.46C599.7 73.67 600.24 72.9 600.81 72.16C601.37 71.42 601.98 70.7 602.61 70.01C603.23 69.34 603.88 68.71 604.56 68.11C605.23 67.5 605.94 66.94 606.68 66.4C607.42 65.87 608.18 65.38 608.96 64.92C609.75 64.46 610.55 64.05 611.38 63.67C612.23 63.28 613.1 62.94 613.98 62.65C614.86 62.36 615.76 62.12 616.67 61.92C617.58 61.73 618.51 61.58 619.43 61.49C620.36 61.4 621.29 61.35 622.22 61.36L673.84 61.36C674.38 61.34 674.92 61.37 675.45 61.47C675.98 61.56 676.5 61.71 677 61.92C677.5 62.12 677.97 62.38 678.42 62.69C678.86 62.99 679.27 63.35 679.64 63.74C681.11 65.33 681.85 67.76 681.84 71.02C681.84 74.29 681.06 76.72 679.52 78.3C679.16 78.68 678.75 79.03 678.32 79.33C677.88 79.63 677.42 79.88 676.93 80.09C676.44 80.29 675.94 80.45 675.42 80.54C674.9 80.64 674.37 80.69 673.84 80.68L620.16 80.68C619.59 80.74 619.03 80.85 618.49 81.03C617.95 81.2 617.42 81.43 616.93 81.72C616.44 82 615.97 82.34 615.55 82.72C615.13 83.11 614.75 83.54 614.42 84C614.03 84.49 613.68 85 613.38 85.55C613.08 86.09 612.83 86.66 612.62 87.25C612.42 87.84 612.27 88.45 612.17 89.06C612.07 89.68 612.02 90.3 612.03 90.92C612.01 91.56 612.06 92.2 612.16 92.84C612.26 93.47 612.43 94.09 612.65 94.7C612.87 95.3 613.14 95.88 613.47 96.43C613.8 96.98 614.18 97.5 614.61 97.98C615 98.44 615.43 98.85 615.91 99.21C616.39 99.57 616.9 99.88 617.45 100.13C617.99 100.37 618.56 100.56 619.15 100.68C619.73 100.81 620.33 100.87 620.93 100.86L654.48 100.86C655.4 100.86 656.32 100.9 657.23 100.99C658.15 101.08 659.05 101.22 659.95 101.41C660.85 101.6 661.74 101.84 662.62 102.12C663.49 102.4 664.35 102.73 665.19 103.1C666.01 103.46 666.81 103.86 667.59 104.3C668.36 104.73 669.12 105.21 669.85 105.72C670.58 106.24 671.29 106.79 671.96 107.37C672.64 107.95 673.29 108.57 673.9 109.22C674.52 109.89 675.12 110.59 675.67 111.31C676.23 112.04 676.76 112.79 677.24 113.56C677.73 114.33 678.18 115.13 678.59 115.95C679 116.76 679.38 117.6 679.71 118.45C680.07 119.35 680.38 120.27 680.65 121.21C680.92 122.14 681.14 123.09 681.32 124.04C681.5 125 681.63 125.96 681.72 126.93C681.81 127.9 681.85 128.87 681.84 129.84C681.85 130.82 681.8 131.8 681.71 132.77C681.62 133.75 681.49 134.72 681.3 135.68C681.12 136.64 680.88 137.59 680.61 138.53C680.33 139.47 680.01 140.39 679.64 141.3C679.29 142.17 678.91 143.02 678.49 143.85C678.06 144.69 677.6 145.5 677.11 146.29C676.61 147.08 676.08 147.85 675.51 148.59C674.94 149.34 674.34 150.05 673.71 150.74C673.09 151.41 672.44 152.04 671.76 152.65C671.08 153.25 670.37 153.82 669.64 154.35C668.9 154.88 668.14 155.38 667.35 155.83C666.57 156.29 665.76 156.7 664.93 157.08C664.08 157.47 663.22 157.81 662.33 158.1C661.45 158.39 660.55 158.63 659.64 158.83C658.73 159.02 657.8 159.17 656.88 159.26C655.95 159.35 655.02 159.4 654.09 159.39L602.48 159.39C601.94 159.41 601.4 159.38 600.87 159.28C600.33 159.19 599.81 159.04 599.31 158.84C598.81 158.63 598.34 158.37 597.89 158.07C597.45 157.76 597.04 157.41 596.67 157.01C595.21 155.43 594.48 153 594.48 149.73C594.48 146.46 595.25 144.03 596.8 142.45C597.16 142.07 597.57 141.72 598 141.42C598.44 141.12 598.9 140.87 599.39 140.66C599.88 140.46 600.39 140.31 600.9 140.21C601.42 140.11 601.95 140.06 602.48 140.07L656.16 140.07Z" />
</svg>